<svg width="808" height="213" viewBox="0 0 808 213" fill="none" xmlns="http://www.w3.org/2000/svg">
<rect width="807.95" height="212.285" fill="#EEE6DC"/>

<path d="M126.992 150.416V89.1677H159.344V96.3677H134.192V150.416H126.992ZM159.306 96.4637V89.2637H216.906V96.4637H159.306ZM241.637 126.992V61.7117H282.821V72.1757H252.965V89.3597H279.077V99.7277H252.965V126.992H241.637ZM332.031 127.856C312.639 127.856 308.415 121.808 308.415 94.2557C308.415 66.7997 312.639 60.7517 332.031 60.7517C351.327 60.7517 355.551 66.7997 355.551 94.2557C355.551 121.808 351.327 127.856 332.031 127.856ZM332.031 117.392C341.919 117.392 344.031 113.264 344.031 94.3517C344.031 75.3437 341.919 71.2157 332.031 71.2157C322.143 71.2157 319.935 75.3437 319.935 94.3517C319.935 113.264 322.143 117.392 332.031 117.392ZM383.258 126.992V61.7117C387.29 61.3277 390.938 61.2317 403.514 61.2317C421.754 61.2317 425.786 64.5917 425.786 80.0477C425.786 92.2397 423.77 95.1197 414.554 96.0797V96.6557C419.834 97.6157 421.562 99.5357 423.77 107.12L429.626 126.992H417.146L412.346 107.984C410.81 101.84 408.602 100.496 399.866 100.496H394.394V126.992H383.258ZM394.394 90.1277H406.01C413.018 90.1277 414.554 88.3037 414.554 80.0477C414.554 74.1917 412.922 72.6557 405.434 71.8877C401.498 71.5037 399.578 71.5037 394.394 71.8877V90.1277ZM451.764 126.992V61.7117H465.78L475.668 92.7197H476.148L486.036 61.7117H500.052V126.992H489.396V92.4317L490.74 74.6717H490.452L480.66 103.952H471.156L461.364 74.6717H461.076L462.42 92.4317V126.992H451.764ZM530.159 126.992V61.7117H568.271V72.1757H541.487V87.8237H564.623V98.2877H541.487V116.528H570.191V126.992H530.159ZM591.081 96.4637V89.2637H648.681V96.4637H591.081ZM648.644 96.4637V89.2637H706.244V96.4637H648.644Z" fill="#111111"/>
</svg>

